M48
;DRILL file {KiCad 4.0.2-stable} date 12/1/2016 11:33:06 PM
;FORMAT={-:-/ absolute / inch / decimal}
FMAT,2
INCH,TZ
T1C0.016
T2C0.046
%
G90
G05
M72
T1
X2.365Y-5.465
X2.41Y-5.935
X2.46Y-6.12
X2.575Y-4.775
X2.7Y-5.33
X2.78Y-4.63
X2.945Y-3.01
X2.96Y-6.23
X2.98Y-3.95
X3.Y-4.56
X3.005Y-5.305
X3.015Y-3.085
X3.04Y-3.62
X3.08Y-3.14
X3.09Y-4.78
X3.13Y-4.89
X3.13Y-6.04
X3.13Y-6.27
X3.135Y-2.29
X3.14Y-4.75
X3.16Y-4.86
X3.17Y-6.09
X3.195Y-6.325
X3.21Y-4.68
X3.22Y-3.24
X3.22Y-6.02
X3.225Y-2.285
X3.23Y-4.82
X3.23Y-6.07
X3.26Y-3.97
X3.28Y-6.35
X3.29Y-5.85
X3.29Y-6.2
X3.31Y-2.88
X3.315Y-5.365
X3.32Y-2.36
X3.32Y-6.16
X3.33Y-5.82
X3.34Y-4.57
X3.34Y-6.1
X3.35Y-6.02
X3.36Y-5.88
X3.365Y-4.08
X3.365Y-4.22
X3.37Y-6.35
X3.39Y-6.06
X3.4Y-3.925
X3.405Y-4.11
X3.41Y-3.98
X3.41Y-5.55
X3.42Y-3.62
X3.42Y-5.21
X3.43Y-3.24
X3.44Y-4.53
X3.44Y-5.09
X3.48Y-6.36
X3.5Y-5.33
X3.51Y-6.19
X3.52Y-5.22
X3.52Y-6.
X3.52Y-6.315
X3.545Y-6.115
X3.555Y-5.795
X3.56Y-4.46
X3.57Y-6.05
X3.58Y-3.15
X3.6Y-5.73
X3.6Y-5.98
X3.65Y-5.38
X3.67Y-3.9
X3.67Y-5.03
X3.71Y-6.165
X3.73Y-3.97
X3.805Y-6.165
X3.81Y-3.62
X3.81Y-3.81
X3.84Y-3.95
X3.89Y-5.3
X3.9Y-4.72
X3.94Y-6.15
X3.965Y-6.03
X3.97Y-6.26
X4.Y-4.42
X4.07Y-4.66
X4.11Y-5.26
X4.3Y-5.47
X4.37Y-6.36
X4.4Y-6.23
X4.445Y-6.04
X4.605Y-6.105
T2
X2.9Y-4.175
X2.9Y-6.3679
X3.7Y-4.1821
X3.7Y-6.375
T0
M30
