G04 #@! TF.FileFunction,Copper,L2,Bot,Signal*
%FSLAX46Y46*%
G04 Gerber Fmt 4.6, Leading zero omitted, Abs format (unit mm)*
G04 Created by KiCad (PCBNEW 4.0.2-stable) date 12/1/2016 11:33:22 PM*
%MOMM*%
G01*
G04 APERTURE LIST*
%ADD10C,0.100000*%
%ADD11C,2.000000*%
%ADD12C,0.600000*%
%ADD13C,0.350000*%
%ADD14C,0.450000*%
%ADD15C,0.254000*%
G04 APERTURE END LIST*
D10*
D11*
X93980000Y-161925000D03*
X93980000Y-106225000D03*
X73660000Y-106045000D03*
X73660000Y-161745000D03*
D12*
X112903000Y-153416000D03*
X116967000Y-155067000D03*
X100076000Y-156210000D03*
X100711000Y-153162000D03*
X76581000Y-78359000D03*
X74803000Y-76454000D03*
X79629000Y-58166000D03*
X81915000Y-58039000D03*
X96647000Y-156591000D03*
X94234000Y-156591000D03*
X90043000Y-155321000D03*
X89408000Y-160401000D03*
X84836000Y-154940000D03*
X80518000Y-154686000D03*
X90297000Y-147193000D03*
X86487000Y-104394000D03*
X86614000Y-101092000D03*
X84201000Y-136271000D03*
X76327000Y-134747000D03*
X86868000Y-132334000D03*
X87376000Y-129286000D03*
X104394000Y-133604000D03*
X98806000Y-134620000D03*
X88900000Y-135382000D03*
X92710000Y-136652000D03*
X101600000Y-112268000D03*
X87376000Y-115062000D03*
X90424000Y-113284000D03*
X76200000Y-115824000D03*
X84836000Y-116078000D03*
X96774000Y-91948000D03*
X77216000Y-91948000D03*
X86868000Y-91948000D03*
X84074000Y-73152000D03*
X84328000Y-59944000D03*
X79756000Y-120650000D03*
X80264000Y-123444000D03*
X60071000Y-138811000D03*
X65405000Y-121285000D03*
X79502000Y-153416000D03*
X61214000Y-150749000D03*
X81153000Y-160655000D03*
X82042000Y-122428000D03*
X81534000Y-118872000D03*
X109220000Y-138938000D03*
X82804000Y-100838000D03*
X75692000Y-100330000D03*
X85598000Y-161290000D03*
X83312000Y-161290000D03*
X85090000Y-152908000D03*
X81788000Y-152908000D03*
X91440000Y-151892000D03*
X89408000Y-152400000D03*
X93218000Y-127762000D03*
X89408000Y-132588000D03*
X103378000Y-118364000D03*
X99060000Y-119888000D03*
X94742000Y-100838000D03*
X97536000Y-100330000D03*
X87122000Y-82296000D03*
X90932000Y-80010000D03*
X78232000Y-79756000D03*
X81788000Y-82296000D03*
X78486000Y-121412000D03*
X79502000Y-124206000D03*
X86360000Y-99695000D03*
X85471000Y-103632000D03*
X85471000Y-107188000D03*
X85344000Y-149352000D03*
X88392000Y-161544000D03*
X96774000Y-96774000D03*
X93218000Y-99060000D03*
X70612000Y-117602000D03*
X84582000Y-147828000D03*
X68580000Y-135382000D03*
X83566000Y-148590000D03*
X86614000Y-140970000D03*
X89154000Y-157226000D03*
X83566000Y-157480000D03*
X100838000Y-159004000D03*
X62484000Y-155448000D03*
X84328000Y-156464000D03*
X75184000Y-158242000D03*
X79502000Y-159258000D03*
X111760000Y-158242000D03*
X110998000Y-161544000D03*
X91440000Y-145542000D03*
X90678000Y-153670000D03*
X86106000Y-153924000D03*
X82042000Y-154178000D03*
D13*
X115316000Y-153416000D02*
X112903000Y-153416000D01*
X116967000Y-155067000D02*
X115316000Y-153416000D01*
X100076000Y-156210000D02*
X100711000Y-155575000D01*
X100711000Y-155575000D02*
X100711000Y-153162000D01*
X76581000Y-78232000D02*
X76581000Y-78359000D01*
X74803000Y-76454000D02*
X76581000Y-78232000D01*
X81788000Y-58166000D02*
X79629000Y-58166000D01*
X81915000Y-58039000D02*
X81788000Y-58166000D01*
X94234000Y-156591000D02*
X96647000Y-156591000D01*
X90043000Y-159766000D02*
X90043000Y-155321000D01*
X89408000Y-160401000D02*
X90043000Y-159766000D01*
X80772000Y-154940000D02*
X84836000Y-154940000D01*
X80518000Y-154686000D02*
X80772000Y-154940000D01*
X89281000Y-135763000D02*
X88900000Y-135382000D01*
X89281000Y-146177000D02*
X89281000Y-135763000D01*
X90297000Y-147193000D02*
X89281000Y-146177000D01*
X86487000Y-101219000D02*
X86487000Y-104394000D01*
X86614000Y-101092000D02*
X86487000Y-101219000D01*
X77851000Y-136271000D02*
X84201000Y-136271000D01*
X76327000Y-134747000D02*
X77851000Y-136271000D01*
X86868000Y-129794000D02*
X86868000Y-132334000D01*
X87376000Y-129286000D02*
X86868000Y-129794000D01*
X99822000Y-133604000D02*
X104394000Y-133604000D01*
X98806000Y-134620000D02*
X99822000Y-133604000D01*
X88900000Y-135382000D02*
X90170000Y-136652000D01*
X90170000Y-136652000D02*
X92710000Y-136652000D01*
X100584000Y-113284000D02*
X90424000Y-113284000D01*
X101600000Y-112268000D02*
X100584000Y-113284000D01*
X87376000Y-115062000D02*
X89154000Y-113284000D01*
X89154000Y-113284000D02*
X90424000Y-113284000D01*
X76200000Y-115824000D02*
X76454000Y-116078000D01*
X76454000Y-116078000D02*
X84836000Y-116078000D01*
X96774000Y-91948000D02*
X86868000Y-91948000D01*
X77216000Y-91948000D02*
X86868000Y-91948000D01*
X84074000Y-60198000D02*
X84074000Y-73152000D01*
X84328000Y-59944000D02*
X84074000Y-60198000D01*
X79756000Y-122936000D02*
X79756000Y-120650000D01*
X80264000Y-123444000D02*
X79756000Y-122936000D01*
X60960000Y-137922000D02*
X60071000Y-138811000D01*
X60960000Y-125730000D02*
X60960000Y-137922000D01*
X65405000Y-121285000D02*
X60960000Y-125730000D01*
X93980000Y-161925000D02*
X96139000Y-161925000D01*
X107061000Y-141097000D02*
X109220000Y-138938000D01*
X107061000Y-151003000D02*
X107061000Y-141097000D01*
X96139000Y-161925000D02*
X107061000Y-151003000D01*
X93980000Y-161925000D02*
X89535000Y-161925000D01*
X79502000Y-154813000D02*
X79502000Y-153416000D01*
X80391000Y-155702000D02*
X79502000Y-154813000D01*
X84963000Y-155702000D02*
X80391000Y-155702000D01*
X86233000Y-156972000D02*
X84963000Y-155702000D01*
X86233000Y-161036000D02*
X86233000Y-156972000D01*
X87884000Y-162687000D02*
X86233000Y-161036000D01*
X88773000Y-162687000D02*
X87884000Y-162687000D01*
X89535000Y-161925000D02*
X88773000Y-162687000D01*
X61214000Y-156337000D02*
X61214000Y-150749000D01*
X68580000Y-163703000D02*
X61214000Y-156337000D01*
X78105000Y-163703000D02*
X68580000Y-163703000D01*
X81153000Y-160655000D02*
X78105000Y-163703000D01*
X82042000Y-119380000D02*
X82042000Y-122428000D01*
X81534000Y-118872000D02*
X82042000Y-119380000D01*
X106172000Y-118364000D02*
X103378000Y-118364000D01*
X109220000Y-138938000D02*
X109474000Y-138684000D01*
X109474000Y-138684000D02*
X109474000Y-128270000D01*
X109474000Y-128270000D02*
X107442000Y-126238000D01*
X107442000Y-126238000D02*
X107442000Y-119634000D01*
X107442000Y-119634000D02*
X106172000Y-118364000D01*
X76200000Y-100838000D02*
X82804000Y-100838000D01*
X75692000Y-100330000D02*
X76200000Y-100838000D01*
X83312000Y-161290000D02*
X85598000Y-161290000D01*
X81788000Y-152908000D02*
X85090000Y-152908000D01*
X91440000Y-151892000D02*
X90932000Y-152400000D01*
X90932000Y-152400000D02*
X89408000Y-152400000D01*
X93218000Y-129286000D02*
X93218000Y-127762000D01*
X90170000Y-132334000D02*
X93218000Y-129286000D01*
X89662000Y-132334000D02*
X90170000Y-132334000D01*
X89408000Y-132588000D02*
X89662000Y-132334000D01*
X103378000Y-118364000D02*
X101854000Y-119888000D01*
X101854000Y-119888000D02*
X99060000Y-119888000D01*
X97028000Y-100838000D02*
X94742000Y-100838000D01*
X97536000Y-100330000D02*
X97028000Y-100838000D01*
X88646000Y-82296000D02*
X87122000Y-82296000D01*
X90932000Y-80010000D02*
X88646000Y-82296000D01*
X79248000Y-79756000D02*
X78232000Y-79756000D01*
X81788000Y-82296000D02*
X79248000Y-79756000D01*
X78486000Y-123190000D02*
X78486000Y-121412000D01*
X79502000Y-124206000D02*
X78486000Y-123190000D01*
X85344000Y-149352000D02*
X85344000Y-118364000D01*
X86233000Y-99695000D02*
X86360000Y-99695000D01*
X85471000Y-100457000D02*
X86233000Y-99695000D01*
X85471000Y-103632000D02*
X85471000Y-100457000D01*
X86106000Y-107823000D02*
X85471000Y-107188000D01*
X86106000Y-117602000D02*
X86106000Y-107823000D01*
X85344000Y-118364000D02*
X86106000Y-117602000D01*
X87376000Y-151384000D02*
X85344000Y-149352000D01*
X87376000Y-160528000D02*
X87376000Y-151384000D01*
X88392000Y-161544000D02*
X87376000Y-160528000D01*
X95504000Y-96774000D02*
X96774000Y-96774000D01*
X93218000Y-99060000D02*
X95504000Y-96774000D01*
X70612000Y-133858000D02*
X70612000Y-117602000D01*
X84582000Y-147828000D02*
X70612000Y-133858000D01*
X70358000Y-135382000D02*
X68580000Y-135382000D01*
X83566000Y-148590000D02*
X70358000Y-135382000D01*
X88138000Y-142494000D02*
X86614000Y-140970000D01*
X88138000Y-156210000D02*
X88138000Y-142494000D01*
X89154000Y-157226000D02*
X88138000Y-156210000D01*
X83566000Y-157988000D02*
X83566000Y-157480000D01*
X82296000Y-159258000D02*
X83566000Y-157988000D01*
X82296000Y-164592000D02*
X82296000Y-159258000D01*
X84074000Y-166370000D02*
X82296000Y-164592000D01*
X96266000Y-166370000D02*
X84074000Y-166370000D01*
X99822000Y-162814000D02*
X96266000Y-166370000D01*
X99822000Y-160020000D02*
X99822000Y-162814000D01*
X100838000Y-159004000D02*
X99822000Y-160020000D01*
X64262000Y-157226000D02*
X62484000Y-155448000D01*
X75692000Y-157226000D02*
X64262000Y-157226000D01*
X76708000Y-158242000D02*
X75692000Y-157226000D01*
X78740000Y-158242000D02*
X76708000Y-158242000D01*
X80518000Y-156464000D02*
X78740000Y-158242000D01*
X84328000Y-156464000D02*
X80518000Y-156464000D01*
X75438000Y-158242000D02*
X75184000Y-158242000D01*
X76454000Y-159258000D02*
X75438000Y-158242000D01*
X79502000Y-159258000D02*
X76454000Y-159258000D01*
X111760000Y-160782000D02*
X111760000Y-158242000D01*
X110998000Y-161544000D02*
X111760000Y-160782000D01*
X92456000Y-146558000D02*
X91440000Y-145542000D01*
X92456000Y-151892000D02*
X92456000Y-146558000D01*
X90678000Y-153670000D02*
X92456000Y-151892000D01*
X82296000Y-153924000D02*
X86106000Y-153924000D01*
X82042000Y-154178000D02*
X82296000Y-153924000D01*
D14*
X73660000Y-106045000D02*
X93800000Y-106045000D01*
X93800000Y-106045000D02*
X93980000Y-106225000D01*
D15*
G36*
X117386485Y-154228782D02*
X117194629Y-154149116D01*
X115888756Y-152843244D01*
X115727000Y-152735162D01*
X115625974Y-152667658D01*
X115316000Y-152606000D01*
X113390441Y-152606000D01*
X113089799Y-152481162D01*
X112717833Y-152480838D01*
X112374057Y-152622883D01*
X112110808Y-152885673D01*
X111968162Y-153229201D01*
X111967838Y-153601167D01*
X112109883Y-153944943D01*
X112372673Y-154208192D01*
X112716201Y-154350838D01*
X113088167Y-154351162D01*
X113391083Y-154226000D01*
X114980488Y-154226000D01*
X116049571Y-155295083D01*
X116173883Y-155595943D01*
X116436673Y-155859192D01*
X116780201Y-156001838D01*
X117152167Y-156002162D01*
X117495943Y-155860117D01*
X117759192Y-155597327D01*
X117767884Y-155576394D01*
X120981169Y-166930000D01*
X96851512Y-166930000D01*
X100394756Y-163386757D01*
X100482549Y-163255365D01*
X100570342Y-163123974D01*
X100632000Y-162814000D01*
X100632000Y-161729167D01*
X110062838Y-161729167D01*
X110204883Y-162072943D01*
X110467673Y-162336192D01*
X110811201Y-162478838D01*
X111183167Y-162479162D01*
X111526943Y-162337117D01*
X111790192Y-162074327D01*
X111915884Y-161771628D01*
X112332757Y-161354756D01*
X112508343Y-161091973D01*
X112540572Y-160929943D01*
X112570000Y-160782000D01*
X112570000Y-158729441D01*
X112694838Y-158428799D01*
X112695162Y-158056833D01*
X112553117Y-157713057D01*
X112290327Y-157449808D01*
X111946799Y-157307162D01*
X111574833Y-157306838D01*
X111231057Y-157448883D01*
X110967808Y-157711673D01*
X110825162Y-158055201D01*
X110824838Y-158427167D01*
X110950000Y-158730083D01*
X110950000Y-160446487D01*
X110769917Y-160626570D01*
X110469057Y-160750883D01*
X110205808Y-161013673D01*
X110063162Y-161357201D01*
X110062838Y-161729167D01*
X100632000Y-161729167D01*
X100632000Y-160355512D01*
X101066083Y-159921429D01*
X101366943Y-159797117D01*
X101630192Y-159534327D01*
X101772838Y-159190799D01*
X101773162Y-158818833D01*
X101631117Y-158475057D01*
X101368327Y-158211808D01*
X101024799Y-158069162D01*
X100652833Y-158068838D01*
X100309057Y-158210883D01*
X100045808Y-158473673D01*
X99920116Y-158776371D01*
X99249244Y-159447244D01*
X99073658Y-159710026D01*
X99012000Y-160020000D01*
X99012000Y-162478487D01*
X95930488Y-165560000D01*
X84409513Y-165560000D01*
X83106000Y-164256488D01*
X83106000Y-163077532D01*
X93007073Y-163077532D01*
X93105736Y-163344387D01*
X93715461Y-163570908D01*
X94365460Y-163546856D01*
X94854264Y-163344387D01*
X94952927Y-163077532D01*
X93980000Y-162104605D01*
X93007073Y-163077532D01*
X83106000Y-163077532D01*
X83106000Y-159593512D01*
X84138756Y-158560757D01*
X84236256Y-158414838D01*
X84314342Y-158297974D01*
X84376000Y-157988000D01*
X84376000Y-157967441D01*
X84500838Y-157666799D01*
X84501071Y-157399151D01*
X84513167Y-157399162D01*
X84856943Y-157257117D01*
X85120192Y-156994327D01*
X85262838Y-156650799D01*
X85263162Y-156278833D01*
X85121117Y-155935057D01*
X85049599Y-155863414D01*
X85364943Y-155733117D01*
X85628192Y-155470327D01*
X85770838Y-155126799D01*
X85771125Y-154797351D01*
X85919201Y-154858838D01*
X86291167Y-154859162D01*
X86566000Y-154745604D01*
X86566000Y-160528000D01*
X86627658Y-160837974D01*
X86689110Y-160929943D01*
X86803244Y-161100756D01*
X87474571Y-161772083D01*
X87598883Y-162072943D01*
X87861673Y-162336192D01*
X88205201Y-162478838D01*
X88577167Y-162479162D01*
X88920943Y-162337117D01*
X89184192Y-162074327D01*
X89326838Y-161730799D01*
X89326899Y-161660461D01*
X92334092Y-161660461D01*
X92358144Y-162310460D01*
X92560613Y-162799264D01*
X92827468Y-162897927D01*
X93800395Y-161925000D01*
X94159605Y-161925000D01*
X95132532Y-162897927D01*
X95399387Y-162799264D01*
X95625908Y-162189539D01*
X95601856Y-161539540D01*
X95399387Y-161050736D01*
X95132532Y-160952073D01*
X94159605Y-161925000D01*
X93800395Y-161925000D01*
X92827468Y-160952073D01*
X92560613Y-161050736D01*
X92334092Y-161660461D01*
X89326899Y-161660461D01*
X89327162Y-161358833D01*
X89317695Y-161335922D01*
X89593167Y-161336162D01*
X89936943Y-161194117D01*
X90200192Y-160931327D01*
X90266156Y-160772468D01*
X93007073Y-160772468D01*
X93980000Y-161745395D01*
X94952927Y-160772468D01*
X94854264Y-160505613D01*
X94244539Y-160279092D01*
X93594540Y-160303144D01*
X93105736Y-160505613D01*
X93007073Y-160772468D01*
X90266156Y-160772468D01*
X90325884Y-160628629D01*
X90615757Y-160338756D01*
X90791343Y-160075973D01*
X90853000Y-159766000D01*
X90853000Y-156776167D01*
X93298838Y-156776167D01*
X93440883Y-157119943D01*
X93703673Y-157383192D01*
X94047201Y-157525838D01*
X94419167Y-157526162D01*
X94722083Y-157401000D01*
X96159559Y-157401000D01*
X96460201Y-157525838D01*
X96832167Y-157526162D01*
X97175943Y-157384117D01*
X97439192Y-157121327D01*
X97581838Y-156777799D01*
X97582162Y-156405833D01*
X97577755Y-156395167D01*
X99140838Y-156395167D01*
X99282883Y-156738943D01*
X99545673Y-157002192D01*
X99889201Y-157144838D01*
X100261167Y-157145162D01*
X100604943Y-157003117D01*
X100868192Y-156740327D01*
X100993884Y-156437629D01*
X101283757Y-156147756D01*
X101459343Y-155884973D01*
X101521000Y-155575000D01*
X101521000Y-153649441D01*
X101645838Y-153348799D01*
X101646162Y-152976833D01*
X101504117Y-152633057D01*
X101241327Y-152369808D01*
X100897799Y-152227162D01*
X100525833Y-152226838D01*
X100182057Y-152368883D01*
X99918808Y-152631673D01*
X99776162Y-152975201D01*
X99775838Y-153347167D01*
X99901000Y-153650083D01*
X99901000Y-155239487D01*
X99847917Y-155292571D01*
X99547057Y-155416883D01*
X99283808Y-155679673D01*
X99141162Y-156023201D01*
X99140838Y-156395167D01*
X97577755Y-156395167D01*
X97440117Y-156062057D01*
X97177327Y-155798808D01*
X96833799Y-155656162D01*
X96461833Y-155655838D01*
X96158917Y-155781000D01*
X94721441Y-155781000D01*
X94420799Y-155656162D01*
X94048833Y-155655838D01*
X93705057Y-155797883D01*
X93441808Y-156060673D01*
X93299162Y-156404201D01*
X93298838Y-156776167D01*
X90853000Y-156776167D01*
X90853000Y-155808441D01*
X90977838Y-155507799D01*
X90978162Y-155135833D01*
X90836117Y-154792057D01*
X90649362Y-154604976D01*
X90863167Y-154605162D01*
X91206943Y-154463117D01*
X91470192Y-154200327D01*
X91595884Y-153897628D01*
X93028757Y-152464756D01*
X93204343Y-152201973D01*
X93266000Y-151892000D01*
X93266000Y-146558000D01*
X93204342Y-146248026D01*
X93134012Y-146142771D01*
X93028757Y-145985244D01*
X92357430Y-145313917D01*
X92233117Y-145013057D01*
X91970327Y-144749808D01*
X91626799Y-144607162D01*
X91254833Y-144606838D01*
X90911057Y-144748883D01*
X90647808Y-145011673D01*
X90505162Y-145355201D01*
X90504838Y-145727167D01*
X90646883Y-146070943D01*
X90909673Y-146334192D01*
X91212372Y-146459884D01*
X91646000Y-146893513D01*
X91646000Y-151556487D01*
X90449918Y-152752570D01*
X90149057Y-152876883D01*
X89885808Y-153139673D01*
X89743162Y-153483201D01*
X89742838Y-153855167D01*
X89884883Y-154198943D01*
X90071638Y-154386024D01*
X89857833Y-154385838D01*
X89514057Y-154527883D01*
X89250808Y-154790673D01*
X89108162Y-155134201D01*
X89107838Y-155506167D01*
X89233000Y-155809083D01*
X89233000Y-156159487D01*
X88948000Y-155874488D01*
X88948000Y-146989512D01*
X89379571Y-147421083D01*
X89503883Y-147721943D01*
X89766673Y-147985192D01*
X90110201Y-148127838D01*
X90482167Y-148128162D01*
X90825943Y-147986117D01*
X91089192Y-147723327D01*
X91231838Y-147379799D01*
X91232162Y-147007833D01*
X91090117Y-146664057D01*
X90827327Y-146400808D01*
X90524629Y-146275116D01*
X90091000Y-145841488D01*
X90091000Y-137446286D01*
X90170000Y-137462000D01*
X92222559Y-137462000D01*
X92523201Y-137586838D01*
X92895167Y-137587162D01*
X93238943Y-137445117D01*
X93502192Y-137182327D01*
X93644838Y-136838799D01*
X93645162Y-136466833D01*
X93503117Y-136123057D01*
X93240327Y-135859808D01*
X92896799Y-135717162D01*
X92524833Y-135716838D01*
X92221917Y-135842000D01*
X90505513Y-135842000D01*
X89853757Y-135190245D01*
X89853756Y-135190243D01*
X89817429Y-135153916D01*
X89693117Y-134853057D01*
X89645311Y-134805167D01*
X97870838Y-134805167D01*
X98012883Y-135148943D01*
X98275673Y-135412192D01*
X98619201Y-135554838D01*
X98991167Y-135555162D01*
X99334943Y-135413117D01*
X99598192Y-135150327D01*
X99723884Y-134847628D01*
X100157513Y-134414000D01*
X103906559Y-134414000D01*
X104207201Y-134538838D01*
X104579167Y-134539162D01*
X104922943Y-134397117D01*
X105186192Y-134134327D01*
X105328838Y-133790799D01*
X105329162Y-133418833D01*
X105187117Y-133075057D01*
X104924327Y-132811808D01*
X104580799Y-132669162D01*
X104208833Y-132668838D01*
X103905917Y-132794000D01*
X99822000Y-132794000D01*
X99512026Y-132855658D01*
X99435553Y-132906756D01*
X99249244Y-133031243D01*
X98577917Y-133702570D01*
X98277057Y-133826883D01*
X98013808Y-134089673D01*
X97871162Y-134433201D01*
X97870838Y-134805167D01*
X89645311Y-134805167D01*
X89430327Y-134589808D01*
X89086799Y-134447162D01*
X88714833Y-134446838D01*
X88371057Y-134588883D01*
X88107808Y-134851673D01*
X87965162Y-135195201D01*
X87964838Y-135567167D01*
X88106883Y-135910943D01*
X88369673Y-136174192D01*
X88471000Y-136216267D01*
X88471000Y-141681487D01*
X87531430Y-140741917D01*
X87407117Y-140441057D01*
X87144327Y-140177808D01*
X86800799Y-140035162D01*
X86428833Y-140034838D01*
X86154000Y-140148396D01*
X86154000Y-132942198D01*
X86337673Y-133126192D01*
X86681201Y-133268838D01*
X87053167Y-133269162D01*
X87396943Y-133127117D01*
X87660192Y-132864327D01*
X87802838Y-132520799D01*
X87803162Y-132148833D01*
X87678000Y-131845917D01*
X87678000Y-130172888D01*
X87904943Y-130079117D01*
X88168192Y-129816327D01*
X88310838Y-129472799D01*
X88311162Y-129100833D01*
X88169117Y-128757057D01*
X87906327Y-128493808D01*
X87562799Y-128351162D01*
X87190833Y-128350838D01*
X86847057Y-128492883D01*
X86583808Y-128755673D01*
X86458116Y-129058372D01*
X86295244Y-129221244D01*
X86154000Y-129432630D01*
X86154000Y-118699512D01*
X86678757Y-118174756D01*
X86854343Y-117911973D01*
X86881766Y-117774103D01*
X86916000Y-117602000D01*
X86916000Y-115883394D01*
X87189201Y-115996838D01*
X87561167Y-115997162D01*
X87904943Y-115855117D01*
X88168192Y-115592327D01*
X88293884Y-115289628D01*
X89489513Y-114094000D01*
X89936559Y-114094000D01*
X90237201Y-114218838D01*
X90609167Y-114219162D01*
X90912083Y-114094000D01*
X100584000Y-114094000D01*
X100893974Y-114032342D01*
X101156756Y-113856756D01*
X101828083Y-113185429D01*
X102128943Y-113061117D01*
X102392192Y-112798327D01*
X102534838Y-112454799D01*
X102535162Y-112082833D01*
X102393117Y-111739057D01*
X102130327Y-111475808D01*
X101786799Y-111333162D01*
X101414833Y-111332838D01*
X101071057Y-111474883D01*
X100807808Y-111737673D01*
X100682116Y-112040371D01*
X100248488Y-112474000D01*
X90911441Y-112474000D01*
X90610799Y-112349162D01*
X90238833Y-112348838D01*
X89935917Y-112474000D01*
X89154000Y-112474000D01*
X88844027Y-112535657D01*
X88581244Y-112711243D01*
X87147918Y-114144570D01*
X86916000Y-114240396D01*
X86916000Y-107823000D01*
X86887499Y-107679716D01*
X86854343Y-107513027D01*
X86678757Y-107250244D01*
X86388429Y-106959917D01*
X86365738Y-106905000D01*
X92491897Y-106905000D01*
X92593106Y-107149943D01*
X93052637Y-107610278D01*
X93653352Y-107859716D01*
X94303795Y-107860284D01*
X94904943Y-107611894D01*
X95365278Y-107152363D01*
X95614716Y-106551648D01*
X95615284Y-105901205D01*
X95366894Y-105300057D01*
X94907363Y-104839722D01*
X94306648Y-104590284D01*
X93656205Y-104589716D01*
X93055057Y-104838106D01*
X92707556Y-105185000D01*
X87018064Y-105185000D01*
X87279192Y-104924327D01*
X87421838Y-104580799D01*
X87422162Y-104208833D01*
X87297000Y-103905917D01*
X87297000Y-101731329D01*
X87406192Y-101622327D01*
X87548838Y-101278799D01*
X87549162Y-100906833D01*
X87407117Y-100563057D01*
X87144327Y-100299808D01*
X87097189Y-100280234D01*
X87152192Y-100225327D01*
X87294838Y-99881799D01*
X87295162Y-99509833D01*
X87185805Y-99245167D01*
X92282838Y-99245167D01*
X92424883Y-99588943D01*
X92687673Y-99852192D01*
X93031201Y-99994838D01*
X93403167Y-99995162D01*
X93746943Y-99853117D01*
X94010192Y-99590327D01*
X94135884Y-99287628D01*
X95839513Y-97584000D01*
X96286559Y-97584000D01*
X96587201Y-97708838D01*
X96959167Y-97709162D01*
X97302943Y-97567117D01*
X97566192Y-97304327D01*
X97708838Y-96960799D01*
X97709162Y-96588833D01*
X97567117Y-96245057D01*
X97304327Y-95981808D01*
X96960799Y-95839162D01*
X96588833Y-95838838D01*
X96285917Y-95964000D01*
X95504000Y-95964000D01*
X95194026Y-96025658D01*
X95062635Y-96113451D01*
X94931243Y-96201244D01*
X92989918Y-98142570D01*
X92689057Y-98266883D01*
X92425808Y-98529673D01*
X92283162Y-98873201D01*
X92282838Y-99245167D01*
X87185805Y-99245167D01*
X87153117Y-99166057D01*
X86890327Y-98902808D01*
X86546799Y-98760162D01*
X86174833Y-98759838D01*
X85831057Y-98901883D01*
X85567808Y-99164673D01*
X85532299Y-99250188D01*
X84898244Y-99884244D01*
X84722658Y-100147026D01*
X84661000Y-100457000D01*
X84661000Y-103144559D01*
X84536162Y-103445201D01*
X84535838Y-103817167D01*
X84677883Y-104160943D01*
X84940673Y-104424192D01*
X85284201Y-104566838D01*
X85551849Y-104567071D01*
X85551838Y-104579167D01*
X85693883Y-104922943D01*
X85955483Y-105185000D01*
X75073728Y-105185000D01*
X75046894Y-105120057D01*
X74587363Y-104659722D01*
X73986648Y-104410284D01*
X73336205Y-104409716D01*
X72735057Y-104658106D01*
X72274722Y-105117637D01*
X72025284Y-105718352D01*
X72024716Y-106368795D01*
X72273106Y-106969943D01*
X72732637Y-107430278D01*
X73333352Y-107679716D01*
X73983795Y-107680284D01*
X74584943Y-107431894D01*
X75045278Y-106972363D01*
X75073249Y-106905000D01*
X84576108Y-106905000D01*
X84536162Y-107001201D01*
X84535838Y-107373167D01*
X84677883Y-107716943D01*
X84940673Y-107980192D01*
X85243371Y-108105884D01*
X85296000Y-108158513D01*
X85296000Y-115256606D01*
X85022799Y-115143162D01*
X84650833Y-115142838D01*
X84347917Y-115268000D01*
X76966107Y-115268000D01*
X76730327Y-115031808D01*
X76386799Y-114889162D01*
X76014833Y-114888838D01*
X75671057Y-115030883D01*
X75407808Y-115293673D01*
X75265162Y-115637201D01*
X75264838Y-116009167D01*
X75406883Y-116352943D01*
X75669673Y-116616192D01*
X76013201Y-116758838D01*
X76043038Y-116758864D01*
X76144026Y-116826342D01*
X76454000Y-116888000D01*
X84348559Y-116888000D01*
X84649201Y-117012838D01*
X85021167Y-117013162D01*
X85296000Y-116899604D01*
X85296000Y-117266487D01*
X84771244Y-117791244D01*
X84595658Y-118054026D01*
X84534000Y-118364000D01*
X84534000Y-135396870D01*
X84387799Y-135336162D01*
X84015833Y-135335838D01*
X83712917Y-135461000D01*
X78186513Y-135461000D01*
X77244430Y-134518917D01*
X77120117Y-134218057D01*
X76857327Y-133954808D01*
X76513799Y-133812162D01*
X76141833Y-133811838D01*
X75798057Y-133953883D01*
X75534808Y-134216673D01*
X75392162Y-134560201D01*
X75391838Y-134932167D01*
X75533883Y-135275943D01*
X75796673Y-135539192D01*
X76099372Y-135664884D01*
X77278243Y-136843756D01*
X77409635Y-136931549D01*
X77541026Y-137019342D01*
X77851000Y-137081000D01*
X83713559Y-137081000D01*
X84014201Y-137205838D01*
X84386167Y-137206162D01*
X84534000Y-137145079D01*
X84534000Y-146634487D01*
X71422000Y-133522488D01*
X71422000Y-121597167D01*
X77550838Y-121597167D01*
X77676000Y-121900083D01*
X77676000Y-123190000D01*
X77737658Y-123499974D01*
X77825073Y-123630799D01*
X77913244Y-123762756D01*
X78584571Y-124434083D01*
X78708883Y-124734943D01*
X78971673Y-124998192D01*
X79315201Y-125140838D01*
X79687167Y-125141162D01*
X80030943Y-124999117D01*
X80294192Y-124736327D01*
X80436838Y-124392799D01*
X80436850Y-124379151D01*
X80449167Y-124379162D01*
X80792943Y-124237117D01*
X81056192Y-123974327D01*
X81198838Y-123630799D01*
X81199162Y-123258833D01*
X81057117Y-122915057D01*
X80794327Y-122651808D01*
X80566000Y-122556998D01*
X80566000Y-121137441D01*
X80690838Y-120836799D01*
X80691162Y-120464833D01*
X80549117Y-120121057D01*
X80286327Y-119857808D01*
X79942799Y-119715162D01*
X79570833Y-119714838D01*
X79227057Y-119856883D01*
X78963808Y-120119673D01*
X78821162Y-120463201D01*
X78821096Y-120538741D01*
X78672799Y-120477162D01*
X78300833Y-120476838D01*
X77957057Y-120618883D01*
X77693808Y-120881673D01*
X77551162Y-121225201D01*
X77550838Y-121597167D01*
X71422000Y-121597167D01*
X71422000Y-118089441D01*
X71546838Y-117788799D01*
X71547162Y-117416833D01*
X71405117Y-117073057D01*
X71142327Y-116809808D01*
X70798799Y-116667162D01*
X70426833Y-116666838D01*
X70083057Y-116808883D01*
X69819808Y-117071673D01*
X69677162Y-117415201D01*
X69676838Y-117787167D01*
X69802000Y-118090083D01*
X69802000Y-133858000D01*
X69863658Y-134167974D01*
X69896198Y-134216673D01*
X70039244Y-134430756D01*
X70180488Y-134572000D01*
X69067441Y-134572000D01*
X68766799Y-134447162D01*
X68394833Y-134446838D01*
X68051057Y-134588883D01*
X67787808Y-134851673D01*
X67645162Y-135195201D01*
X67644838Y-135567167D01*
X67786883Y-135910943D01*
X68049673Y-136174192D01*
X68393201Y-136316838D01*
X68765167Y-136317162D01*
X69068083Y-136192000D01*
X70022488Y-136192000D01*
X82648571Y-148818084D01*
X82772883Y-149118943D01*
X83035673Y-149382192D01*
X83379201Y-149524838D01*
X83751167Y-149525162D01*
X84094943Y-149383117D01*
X84358192Y-149120327D01*
X84500838Y-148776799D01*
X84500850Y-148762930D01*
X84534000Y-148762959D01*
X84534000Y-148864559D01*
X84409162Y-149165201D01*
X84408838Y-149537167D01*
X84550883Y-149880943D01*
X84813673Y-150144192D01*
X85116372Y-150269884D01*
X86566000Y-151719513D01*
X86566000Y-153102606D01*
X86292799Y-152989162D01*
X85920833Y-152988838D01*
X85617917Y-153114000D01*
X82296000Y-153114000D01*
X81986026Y-153175658D01*
X81885447Y-153242863D01*
X81856833Y-153242838D01*
X81513057Y-153384883D01*
X81249808Y-153647673D01*
X81118439Y-153964043D01*
X81048327Y-153893808D01*
X80704799Y-153751162D01*
X80332833Y-153750838D01*
X79989057Y-153892883D01*
X79725808Y-154155673D01*
X79583162Y-154499201D01*
X79582838Y-154871167D01*
X79724883Y-155214943D01*
X79987673Y-155478192D01*
X80331201Y-155620838D01*
X80361038Y-155620864D01*
X80435260Y-155670458D01*
X80208027Y-155715657D01*
X79945244Y-155891243D01*
X78404488Y-157432000D01*
X77043513Y-157432000D01*
X76264756Y-156653244D01*
X76258654Y-156649167D01*
X76001974Y-156477658D01*
X75692000Y-156416000D01*
X64597513Y-156416000D01*
X63401430Y-155219918D01*
X63277117Y-154919057D01*
X63014327Y-154655808D01*
X62670799Y-154513162D01*
X62298833Y-154512838D01*
X61955057Y-154654883D01*
X61691808Y-154917673D01*
X61549162Y-155261201D01*
X61548838Y-155633167D01*
X61690883Y-155976943D01*
X61953673Y-156240192D01*
X62256372Y-156365884D01*
X63689244Y-157798757D01*
X63952027Y-157974343D01*
X64262000Y-158036000D01*
X74257135Y-158036000D01*
X74249162Y-158055201D01*
X74248838Y-158427167D01*
X74390883Y-158770943D01*
X74653673Y-159034192D01*
X74997201Y-159176838D01*
X75227526Y-159177039D01*
X75881244Y-159830757D01*
X76038771Y-159936012D01*
X76144026Y-160006342D01*
X76454000Y-160068000D01*
X79014559Y-160068000D01*
X79315201Y-160192838D01*
X79687167Y-160193162D01*
X80030943Y-160051117D01*
X80294192Y-159788327D01*
X80436838Y-159444799D01*
X80437162Y-159072833D01*
X80295117Y-158729057D01*
X80032327Y-158465808D01*
X79770447Y-158357065D01*
X80853513Y-157274000D01*
X82639135Y-157274000D01*
X82631162Y-157293201D01*
X82630838Y-157665167D01*
X82663726Y-157744762D01*
X81723244Y-158685244D01*
X81547658Y-158948026D01*
X81486000Y-159258000D01*
X81486000Y-164592000D01*
X81547658Y-164901974D01*
X81723244Y-165164756D01*
X83488487Y-166930000D01*
X46658831Y-166930000D01*
X48034643Y-162068795D01*
X72024716Y-162068795D01*
X72273106Y-162669943D01*
X72732637Y-163130278D01*
X73333352Y-163379716D01*
X73983795Y-163380284D01*
X74584943Y-163131894D01*
X75045278Y-162672363D01*
X75294716Y-162071648D01*
X75295284Y-161421205D01*
X75046894Y-160820057D01*
X74587363Y-160359722D01*
X73986648Y-160110284D01*
X73336205Y-160109716D01*
X72735057Y-160358106D01*
X72274722Y-160817637D01*
X72025284Y-161418352D01*
X72024716Y-162068795D01*
X48034643Y-162068795D01*
X67827744Y-92133167D01*
X76280838Y-92133167D01*
X76422883Y-92476943D01*
X76685673Y-92740192D01*
X77029201Y-92882838D01*
X77401167Y-92883162D01*
X77704083Y-92758000D01*
X86380559Y-92758000D01*
X86681201Y-92882838D01*
X87053167Y-92883162D01*
X87356083Y-92758000D01*
X96286559Y-92758000D01*
X96587201Y-92882838D01*
X96959167Y-92883162D01*
X97302943Y-92741117D01*
X97566192Y-92478327D01*
X97708838Y-92134799D01*
X97709162Y-91762833D01*
X97567117Y-91419057D01*
X97304327Y-91155808D01*
X96960799Y-91013162D01*
X96588833Y-91012838D01*
X96285917Y-91138000D01*
X87355441Y-91138000D01*
X87054799Y-91013162D01*
X86682833Y-91012838D01*
X86379917Y-91138000D01*
X77703441Y-91138000D01*
X77402799Y-91013162D01*
X77030833Y-91012838D01*
X76687057Y-91154883D01*
X76423808Y-91417673D01*
X76281162Y-91761201D01*
X76280838Y-92133167D01*
X67827744Y-92133167D01*
X72212839Y-76639167D01*
X73867838Y-76639167D01*
X74009883Y-76982943D01*
X74272673Y-77246192D01*
X74575372Y-77371884D01*
X75645927Y-78442439D01*
X75645838Y-78544167D01*
X75787883Y-78887943D01*
X76050673Y-79151192D01*
X76394201Y-79293838D01*
X76766167Y-79294162D01*
X77109943Y-79152117D01*
X77373192Y-78889327D01*
X77515838Y-78545799D01*
X77516162Y-78173833D01*
X77374117Y-77830057D01*
X77111327Y-77566808D01*
X77025812Y-77531299D01*
X75720430Y-76225918D01*
X75596117Y-75925057D01*
X75333327Y-75661808D01*
X74989799Y-75519162D01*
X74617833Y-75518838D01*
X74274057Y-75660883D01*
X74010808Y-75923673D01*
X73868162Y-76267201D01*
X73867838Y-76639167D01*
X72212839Y-76639167D01*
X73147367Y-73337167D01*
X83138838Y-73337167D01*
X83280883Y-73680943D01*
X83543673Y-73944192D01*
X83887201Y-74086838D01*
X84259167Y-74087162D01*
X84602943Y-73945117D01*
X84866192Y-73682327D01*
X85008838Y-73338799D01*
X85009162Y-72966833D01*
X84884000Y-72663917D01*
X84884000Y-60710107D01*
X85120192Y-60474327D01*
X85262838Y-60130799D01*
X85263162Y-59758833D01*
X85121117Y-59415057D01*
X84858327Y-59151808D01*
X84514799Y-59009162D01*
X84142833Y-59008838D01*
X83799057Y-59150883D01*
X83535808Y-59413673D01*
X83393162Y-59757201D01*
X83393136Y-59787038D01*
X83325658Y-59888026D01*
X83264000Y-60198000D01*
X83264000Y-72664559D01*
X83139162Y-72965201D01*
X83138838Y-73337167D01*
X73147367Y-73337167D01*
X77388688Y-58351167D01*
X78693838Y-58351167D01*
X78835883Y-58694943D01*
X79098673Y-58958192D01*
X79442201Y-59100838D01*
X79814167Y-59101162D01*
X80117083Y-58976000D01*
X81788000Y-58976000D01*
X81798561Y-58973899D01*
X82100167Y-58974162D01*
X82443943Y-58832117D01*
X82707192Y-58569327D01*
X82849838Y-58225799D01*
X82850162Y-57853833D01*
X82708117Y-57510057D01*
X82445327Y-57246808D01*
X82101799Y-57104162D01*
X81729833Y-57103838D01*
X81386057Y-57245883D01*
X81275748Y-57356000D01*
X80116441Y-57356000D01*
X79815799Y-57231162D01*
X79443833Y-57230838D01*
X79100057Y-57372883D01*
X78836808Y-57635673D01*
X78694162Y-57979201D01*
X78693838Y-58351167D01*
X77388688Y-58351167D01*
X83820000Y-35627202D01*
X117386485Y-154228782D01*
X117386485Y-154228782D01*
G37*
X117386485Y-154228782D02*
X117194629Y-154149116D01*
X115888756Y-152843244D01*
X115727000Y-152735162D01*
X115625974Y-152667658D01*
X115316000Y-152606000D01*
X113390441Y-152606000D01*
X113089799Y-152481162D01*
X112717833Y-152480838D01*
X112374057Y-152622883D01*
X112110808Y-152885673D01*
X111968162Y-153229201D01*
X111967838Y-153601167D01*
X112109883Y-153944943D01*
X112372673Y-154208192D01*
X112716201Y-154350838D01*
X113088167Y-154351162D01*
X113391083Y-154226000D01*
X114980488Y-154226000D01*
X116049571Y-155295083D01*
X116173883Y-155595943D01*
X116436673Y-155859192D01*
X116780201Y-156001838D01*
X117152167Y-156002162D01*
X117495943Y-155860117D01*
X117759192Y-155597327D01*
X117767884Y-155576394D01*
X120981169Y-166930000D01*
X96851512Y-166930000D01*
X100394756Y-163386757D01*
X100482549Y-163255365D01*
X100570342Y-163123974D01*
X100632000Y-162814000D01*
X100632000Y-161729167D01*
X110062838Y-161729167D01*
X110204883Y-162072943D01*
X110467673Y-162336192D01*
X110811201Y-162478838D01*
X111183167Y-162479162D01*
X111526943Y-162337117D01*
X111790192Y-162074327D01*
X111915884Y-161771628D01*
X112332757Y-161354756D01*
X112508343Y-161091973D01*
X112540572Y-160929943D01*
X112570000Y-160782000D01*
X112570000Y-158729441D01*
X112694838Y-158428799D01*
X112695162Y-158056833D01*
X112553117Y-157713057D01*
X112290327Y-157449808D01*
X111946799Y-157307162D01*
X111574833Y-157306838D01*
X111231057Y-157448883D01*
X110967808Y-157711673D01*
X110825162Y-158055201D01*
X110824838Y-158427167D01*
X110950000Y-158730083D01*
X110950000Y-160446487D01*
X110769917Y-160626570D01*
X110469057Y-160750883D01*
X110205808Y-161013673D01*
X110063162Y-161357201D01*
X110062838Y-161729167D01*
X100632000Y-161729167D01*
X100632000Y-160355512D01*
X101066083Y-159921429D01*
X101366943Y-159797117D01*
X101630192Y-159534327D01*
X101772838Y-159190799D01*
X101773162Y-158818833D01*
X101631117Y-158475057D01*
X101368327Y-158211808D01*
X101024799Y-158069162D01*
X100652833Y-158068838D01*
X100309057Y-158210883D01*
X100045808Y-158473673D01*
X99920116Y-158776371D01*
X99249244Y-159447244D01*
X99073658Y-159710026D01*
X99012000Y-160020000D01*
X99012000Y-162478487D01*
X95930488Y-165560000D01*
X84409513Y-165560000D01*
X83106000Y-164256488D01*
X83106000Y-163077532D01*
X93007073Y-163077532D01*
X93105736Y-163344387D01*
X93715461Y-163570908D01*
X94365460Y-163546856D01*
X94854264Y-163344387D01*
X94952927Y-163077532D01*
X93980000Y-162104605D01*
X93007073Y-163077532D01*
X83106000Y-163077532D01*
X83106000Y-159593512D01*
X84138756Y-158560757D01*
X84236256Y-158414838D01*
X84314342Y-158297974D01*
X84376000Y-157988000D01*
X84376000Y-157967441D01*
X84500838Y-157666799D01*
X84501071Y-157399151D01*
X84513167Y-157399162D01*
X84856943Y-157257117D01*
X85120192Y-156994327D01*
X85262838Y-156650799D01*
X85263162Y-156278833D01*
X85121117Y-155935057D01*
X85049599Y-155863414D01*
X85364943Y-155733117D01*
X85628192Y-155470327D01*
X85770838Y-155126799D01*
X85771125Y-154797351D01*
X85919201Y-154858838D01*
X86291167Y-154859162D01*
X86566000Y-154745604D01*
X86566000Y-160528000D01*
X86627658Y-160837974D01*
X86689110Y-160929943D01*
X86803244Y-161100756D01*
X87474571Y-161772083D01*
X87598883Y-162072943D01*
X87861673Y-162336192D01*
X88205201Y-162478838D01*
X88577167Y-162479162D01*
X88920943Y-162337117D01*
X89184192Y-162074327D01*
X89326838Y-161730799D01*
X89326899Y-161660461D01*
X92334092Y-161660461D01*
X92358144Y-162310460D01*
X92560613Y-162799264D01*
X92827468Y-162897927D01*
X93800395Y-161925000D01*
X94159605Y-161925000D01*
X95132532Y-162897927D01*
X95399387Y-162799264D01*
X95625908Y-162189539D01*
X95601856Y-161539540D01*
X95399387Y-161050736D01*
X95132532Y-160952073D01*
X94159605Y-161925000D01*
X93800395Y-161925000D01*
X92827468Y-160952073D01*
X92560613Y-161050736D01*
X92334092Y-161660461D01*
X89326899Y-161660461D01*
X89327162Y-161358833D01*
X89317695Y-161335922D01*
X89593167Y-161336162D01*
X89936943Y-161194117D01*
X90200192Y-160931327D01*
X90266156Y-160772468D01*
X93007073Y-160772468D01*
X93980000Y-161745395D01*
X94952927Y-160772468D01*
X94854264Y-160505613D01*
X94244539Y-160279092D01*
X93594540Y-160303144D01*
X93105736Y-160505613D01*
X93007073Y-160772468D01*
X90266156Y-160772468D01*
X90325884Y-160628629D01*
X90615757Y-160338756D01*
X90791343Y-160075973D01*
X90853000Y-159766000D01*
X90853000Y-156776167D01*
X93298838Y-156776167D01*
X93440883Y-157119943D01*
X93703673Y-157383192D01*
X94047201Y-157525838D01*
X94419167Y-157526162D01*
X94722083Y-157401000D01*
X96159559Y-157401000D01*
X96460201Y-157525838D01*
X96832167Y-157526162D01*
X97175943Y-157384117D01*
X97439192Y-157121327D01*
X97581838Y-156777799D01*
X97582162Y-156405833D01*
X97577755Y-156395167D01*
X99140838Y-156395167D01*
X99282883Y-156738943D01*
X99545673Y-157002192D01*
X99889201Y-157144838D01*
X100261167Y-157145162D01*
X100604943Y-157003117D01*
X100868192Y-156740327D01*
X100993884Y-156437629D01*
X101283757Y-156147756D01*
X101459343Y-155884973D01*
X101521000Y-155575000D01*
X101521000Y-153649441D01*
X101645838Y-153348799D01*
X101646162Y-152976833D01*
X101504117Y-152633057D01*
X101241327Y-152369808D01*
X100897799Y-152227162D01*
X100525833Y-152226838D01*
X100182057Y-152368883D01*
X99918808Y-152631673D01*
X99776162Y-152975201D01*
X99775838Y-153347167D01*
X99901000Y-153650083D01*
X99901000Y-155239487D01*
X99847917Y-155292571D01*
X99547057Y-155416883D01*
X99283808Y-155679673D01*
X99141162Y-156023201D01*
X99140838Y-156395167D01*
X97577755Y-156395167D01*
X97440117Y-156062057D01*
X97177327Y-155798808D01*
X96833799Y-155656162D01*
X96461833Y-155655838D01*
X96158917Y-155781000D01*
X94721441Y-155781000D01*
X94420799Y-155656162D01*
X94048833Y-155655838D01*
X93705057Y-155797883D01*
X93441808Y-156060673D01*
X93299162Y-156404201D01*
X93298838Y-156776167D01*
X90853000Y-156776167D01*
X90853000Y-155808441D01*
X90977838Y-155507799D01*
X90978162Y-155135833D01*
X90836117Y-154792057D01*
X90649362Y-154604976D01*
X90863167Y-154605162D01*
X91206943Y-154463117D01*
X91470192Y-154200327D01*
X91595884Y-153897628D01*
X93028757Y-152464756D01*
X93204343Y-152201973D01*
X93266000Y-151892000D01*
X93266000Y-146558000D01*
X93204342Y-146248026D01*
X93134012Y-146142771D01*
X93028757Y-145985244D01*
X92357430Y-145313917D01*
X92233117Y-145013057D01*
X91970327Y-144749808D01*
X91626799Y-144607162D01*
X91254833Y-144606838D01*
X90911057Y-144748883D01*
X90647808Y-145011673D01*
X90505162Y-145355201D01*
X90504838Y-145727167D01*
X90646883Y-146070943D01*
X90909673Y-146334192D01*
X91212372Y-146459884D01*
X91646000Y-146893513D01*
X91646000Y-151556487D01*
X90449918Y-152752570D01*
X90149057Y-152876883D01*
X89885808Y-153139673D01*
X89743162Y-153483201D01*
X89742838Y-153855167D01*
X89884883Y-154198943D01*
X90071638Y-154386024D01*
X89857833Y-154385838D01*
X89514057Y-154527883D01*
X89250808Y-154790673D01*
X89108162Y-155134201D01*
X89107838Y-155506167D01*
X89233000Y-155809083D01*
X89233000Y-156159487D01*
X88948000Y-155874488D01*
X88948000Y-146989512D01*
X89379571Y-147421083D01*
X89503883Y-147721943D01*
X89766673Y-147985192D01*
X90110201Y-148127838D01*
X90482167Y-148128162D01*
X90825943Y-147986117D01*
X91089192Y-147723327D01*
X91231838Y-147379799D01*
X91232162Y-147007833D01*
X91090117Y-146664057D01*
X90827327Y-146400808D01*
X90524629Y-146275116D01*
X90091000Y-145841488D01*
X90091000Y-137446286D01*
X90170000Y-137462000D01*
X92222559Y-137462000D01*
X92523201Y-137586838D01*
X92895167Y-137587162D01*
X93238943Y-137445117D01*
X93502192Y-137182327D01*
X93644838Y-136838799D01*
X93645162Y-136466833D01*
X93503117Y-136123057D01*
X93240327Y-135859808D01*
X92896799Y-135717162D01*
X92524833Y-135716838D01*
X92221917Y-135842000D01*
X90505513Y-135842000D01*
X89853757Y-135190245D01*
X89853756Y-135190243D01*
X89817429Y-135153916D01*
X89693117Y-134853057D01*
X89645311Y-134805167D01*
X97870838Y-134805167D01*
X98012883Y-135148943D01*
X98275673Y-135412192D01*
X98619201Y-135554838D01*
X98991167Y-135555162D01*
X99334943Y-135413117D01*
X99598192Y-135150327D01*
X99723884Y-134847628D01*
X100157513Y-134414000D01*
X103906559Y-134414000D01*
X104207201Y-134538838D01*
X104579167Y-134539162D01*
X104922943Y-134397117D01*
X105186192Y-134134327D01*
X105328838Y-133790799D01*
X105329162Y-133418833D01*
X105187117Y-133075057D01*
X104924327Y-132811808D01*
X104580799Y-132669162D01*
X104208833Y-132668838D01*
X103905917Y-132794000D01*
X99822000Y-132794000D01*
X99512026Y-132855658D01*
X99435553Y-132906756D01*
X99249244Y-133031243D01*
X98577917Y-133702570D01*
X98277057Y-133826883D01*
X98013808Y-134089673D01*
X97871162Y-134433201D01*
X97870838Y-134805167D01*
X89645311Y-134805167D01*
X89430327Y-134589808D01*
X89086799Y-134447162D01*
X88714833Y-134446838D01*
X88371057Y-134588883D01*
X88107808Y-134851673D01*
X87965162Y-135195201D01*
X87964838Y-135567167D01*
X88106883Y-135910943D01*
X88369673Y-136174192D01*
X88471000Y-136216267D01*
X88471000Y-141681487D01*
X87531430Y-140741917D01*
X87407117Y-140441057D01*
X87144327Y-140177808D01*
X86800799Y-140035162D01*
X86428833Y-140034838D01*
X86154000Y-140148396D01*
X86154000Y-132942198D01*
X86337673Y-133126192D01*
X86681201Y-133268838D01*
X87053167Y-133269162D01*
X87396943Y-133127117D01*
X87660192Y-132864327D01*
X87802838Y-132520799D01*
X87803162Y-132148833D01*
X87678000Y-131845917D01*
X87678000Y-130172888D01*
X87904943Y-130079117D01*
X88168192Y-129816327D01*
X88310838Y-129472799D01*
X88311162Y-129100833D01*
X88169117Y-128757057D01*
X87906327Y-128493808D01*
X87562799Y-128351162D01*
X87190833Y-128350838D01*
X86847057Y-128492883D01*
X86583808Y-128755673D01*
X86458116Y-129058372D01*
X86295244Y-129221244D01*
X86154000Y-129432630D01*
X86154000Y-118699512D01*
X86678757Y-118174756D01*
X86854343Y-117911973D01*
X86881766Y-117774103D01*
X86916000Y-117602000D01*
X86916000Y-115883394D01*
X87189201Y-115996838D01*
X87561167Y-115997162D01*
X87904943Y-115855117D01*
X88168192Y-115592327D01*
X88293884Y-115289628D01*
X89489513Y-114094000D01*
X89936559Y-114094000D01*
X90237201Y-114218838D01*
X90609167Y-114219162D01*
X90912083Y-114094000D01*
X100584000Y-114094000D01*
X100893974Y-114032342D01*
X101156756Y-113856756D01*
X101828083Y-113185429D01*
X102128943Y-113061117D01*
X102392192Y-112798327D01*
X102534838Y-112454799D01*
X102535162Y-112082833D01*
X102393117Y-111739057D01*
X102130327Y-111475808D01*
X101786799Y-111333162D01*
X101414833Y-111332838D01*
X101071057Y-111474883D01*
X100807808Y-111737673D01*
X100682116Y-112040371D01*
X100248488Y-112474000D01*
X90911441Y-112474000D01*
X90610799Y-112349162D01*
X90238833Y-112348838D01*
X89935917Y-112474000D01*
X89154000Y-112474000D01*
X88844027Y-112535657D01*
X88581244Y-112711243D01*
X87147918Y-114144570D01*
X86916000Y-114240396D01*
X86916000Y-107823000D01*
X86887499Y-107679716D01*
X86854343Y-107513027D01*
X86678757Y-107250244D01*
X86388429Y-106959917D01*
X86365738Y-106905000D01*
X92491897Y-106905000D01*
X92593106Y-107149943D01*
X93052637Y-107610278D01*
X93653352Y-107859716D01*
X94303795Y-107860284D01*
X94904943Y-107611894D01*
X95365278Y-107152363D01*
X95614716Y-106551648D01*
X95615284Y-105901205D01*
X95366894Y-105300057D01*
X94907363Y-104839722D01*
X94306648Y-104590284D01*
X93656205Y-104589716D01*
X93055057Y-104838106D01*
X92707556Y-105185000D01*
X87018064Y-105185000D01*
X87279192Y-104924327D01*
X87421838Y-104580799D01*
X87422162Y-104208833D01*
X87297000Y-103905917D01*
X87297000Y-101731329D01*
X87406192Y-101622327D01*
X87548838Y-101278799D01*
X87549162Y-100906833D01*
X87407117Y-100563057D01*
X87144327Y-100299808D01*
X87097189Y-100280234D01*
X87152192Y-100225327D01*
X87294838Y-99881799D01*
X87295162Y-99509833D01*
X87185805Y-99245167D01*
X92282838Y-99245167D01*
X92424883Y-99588943D01*
X92687673Y-99852192D01*
X93031201Y-99994838D01*
X93403167Y-99995162D01*
X93746943Y-99853117D01*
X94010192Y-99590327D01*
X94135884Y-99287628D01*
X95839513Y-97584000D01*
X96286559Y-97584000D01*
X96587201Y-97708838D01*
X96959167Y-97709162D01*
X97302943Y-97567117D01*
X97566192Y-97304327D01*
X97708838Y-96960799D01*
X97709162Y-96588833D01*
X97567117Y-96245057D01*
X97304327Y-95981808D01*
X96960799Y-95839162D01*
X96588833Y-95838838D01*
X96285917Y-95964000D01*
X95504000Y-95964000D01*
X95194026Y-96025658D01*
X95062635Y-96113451D01*
X94931243Y-96201244D01*
X92989918Y-98142570D01*
X92689057Y-98266883D01*
X92425808Y-98529673D01*
X92283162Y-98873201D01*
X92282838Y-99245167D01*
X87185805Y-99245167D01*
X87153117Y-99166057D01*
X86890327Y-98902808D01*
X86546799Y-98760162D01*
X86174833Y-98759838D01*
X85831057Y-98901883D01*
X85567808Y-99164673D01*
X85532299Y-99250188D01*
X84898244Y-99884244D01*
X84722658Y-100147026D01*
X84661000Y-100457000D01*
X84661000Y-103144559D01*
X84536162Y-103445201D01*
X84535838Y-103817167D01*
X84677883Y-104160943D01*
X84940673Y-104424192D01*
X85284201Y-104566838D01*
X85551849Y-104567071D01*
X85551838Y-104579167D01*
X85693883Y-104922943D01*
X85955483Y-105185000D01*
X75073728Y-105185000D01*
X75046894Y-105120057D01*
X74587363Y-104659722D01*
X73986648Y-104410284D01*
X73336205Y-104409716D01*
X72735057Y-104658106D01*
X72274722Y-105117637D01*
X72025284Y-105718352D01*
X72024716Y-106368795D01*
X72273106Y-106969943D01*
X72732637Y-107430278D01*
X73333352Y-107679716D01*
X73983795Y-107680284D01*
X74584943Y-107431894D01*
X75045278Y-106972363D01*
X75073249Y-106905000D01*
X84576108Y-106905000D01*
X84536162Y-107001201D01*
X84535838Y-107373167D01*
X84677883Y-107716943D01*
X84940673Y-107980192D01*
X85243371Y-108105884D01*
X85296000Y-108158513D01*
X85296000Y-115256606D01*
X85022799Y-115143162D01*
X84650833Y-115142838D01*
X84347917Y-115268000D01*
X76966107Y-115268000D01*
X76730327Y-115031808D01*
X76386799Y-114889162D01*
X76014833Y-114888838D01*
X75671057Y-115030883D01*
X75407808Y-115293673D01*
X75265162Y-115637201D01*
X75264838Y-116009167D01*
X75406883Y-116352943D01*
X75669673Y-116616192D01*
X76013201Y-116758838D01*
X76043038Y-116758864D01*
X76144026Y-116826342D01*
X76454000Y-116888000D01*
X84348559Y-116888000D01*
X84649201Y-117012838D01*
X85021167Y-117013162D01*
X85296000Y-116899604D01*
X85296000Y-117266487D01*
X84771244Y-117791244D01*
X84595658Y-118054026D01*
X84534000Y-118364000D01*
X84534000Y-135396870D01*
X84387799Y-135336162D01*
X84015833Y-135335838D01*
X83712917Y-135461000D01*
X78186513Y-135461000D01*
X77244430Y-134518917D01*
X77120117Y-134218057D01*
X76857327Y-133954808D01*
X76513799Y-133812162D01*
X76141833Y-133811838D01*
X75798057Y-133953883D01*
X75534808Y-134216673D01*
X75392162Y-134560201D01*
X75391838Y-134932167D01*
X75533883Y-135275943D01*
X75796673Y-135539192D01*
X76099372Y-135664884D01*
X77278243Y-136843756D01*
X77409635Y-136931549D01*
X77541026Y-137019342D01*
X77851000Y-137081000D01*
X83713559Y-137081000D01*
X84014201Y-137205838D01*
X84386167Y-137206162D01*
X84534000Y-137145079D01*
X84534000Y-146634487D01*
X71422000Y-133522488D01*
X71422000Y-121597167D01*
X77550838Y-121597167D01*
X77676000Y-121900083D01*
X77676000Y-123190000D01*
X77737658Y-123499974D01*
X77825073Y-123630799D01*
X77913244Y-123762756D01*
X78584571Y-124434083D01*
X78708883Y-124734943D01*
X78971673Y-124998192D01*
X79315201Y-125140838D01*
X79687167Y-125141162D01*
X80030943Y-124999117D01*
X80294192Y-124736327D01*
X80436838Y-124392799D01*
X80436850Y-124379151D01*
X80449167Y-124379162D01*
X80792943Y-124237117D01*
X81056192Y-123974327D01*
X81198838Y-123630799D01*
X81199162Y-123258833D01*
X81057117Y-122915057D01*
X80794327Y-122651808D01*
X80566000Y-122556998D01*
X80566000Y-121137441D01*
X80690838Y-120836799D01*
X80691162Y-120464833D01*
X80549117Y-120121057D01*
X80286327Y-119857808D01*
X79942799Y-119715162D01*
X79570833Y-119714838D01*
X79227057Y-119856883D01*
X78963808Y-120119673D01*
X78821162Y-120463201D01*
X78821096Y-120538741D01*
X78672799Y-120477162D01*
X78300833Y-120476838D01*
X77957057Y-120618883D01*
X77693808Y-120881673D01*
X77551162Y-121225201D01*
X77550838Y-121597167D01*
X71422000Y-121597167D01*
X71422000Y-118089441D01*
X71546838Y-117788799D01*
X71547162Y-117416833D01*
X71405117Y-117073057D01*
X71142327Y-116809808D01*
X70798799Y-116667162D01*
X70426833Y-116666838D01*
X70083057Y-116808883D01*
X69819808Y-117071673D01*
X69677162Y-117415201D01*
X69676838Y-117787167D01*
X69802000Y-118090083D01*
X69802000Y-133858000D01*
X69863658Y-134167974D01*
X69896198Y-134216673D01*
X70039244Y-134430756D01*
X70180488Y-134572000D01*
X69067441Y-134572000D01*
X68766799Y-134447162D01*
X68394833Y-134446838D01*
X68051057Y-134588883D01*
X67787808Y-134851673D01*
X67645162Y-135195201D01*
X67644838Y-135567167D01*
X67786883Y-135910943D01*
X68049673Y-136174192D01*
X68393201Y-136316838D01*
X68765167Y-136317162D01*
X69068083Y-136192000D01*
X70022488Y-136192000D01*
X82648571Y-148818084D01*
X82772883Y-149118943D01*
X83035673Y-149382192D01*
X83379201Y-149524838D01*
X83751167Y-149525162D01*
X84094943Y-149383117D01*
X84358192Y-149120327D01*
X84500838Y-148776799D01*
X84500850Y-148762930D01*
X84534000Y-148762959D01*
X84534000Y-148864559D01*
X84409162Y-149165201D01*
X84408838Y-149537167D01*
X84550883Y-149880943D01*
X84813673Y-150144192D01*
X85116372Y-150269884D01*
X86566000Y-151719513D01*
X86566000Y-153102606D01*
X86292799Y-152989162D01*
X85920833Y-152988838D01*
X85617917Y-153114000D01*
X82296000Y-153114000D01*
X81986026Y-153175658D01*
X81885447Y-153242863D01*
X81856833Y-153242838D01*
X81513057Y-153384883D01*
X81249808Y-153647673D01*
X81118439Y-153964043D01*
X81048327Y-153893808D01*
X80704799Y-153751162D01*
X80332833Y-153750838D01*
X79989057Y-153892883D01*
X79725808Y-154155673D01*
X79583162Y-154499201D01*
X79582838Y-154871167D01*
X79724883Y-155214943D01*
X79987673Y-155478192D01*
X80331201Y-155620838D01*
X80361038Y-155620864D01*
X80435260Y-155670458D01*
X80208027Y-155715657D01*
X79945244Y-155891243D01*
X78404488Y-157432000D01*
X77043513Y-157432000D01*
X76264756Y-156653244D01*
X76258654Y-156649167D01*
X76001974Y-156477658D01*
X75692000Y-156416000D01*
X64597513Y-156416000D01*
X63401430Y-155219918D01*
X63277117Y-154919057D01*
X63014327Y-154655808D01*
X62670799Y-154513162D01*
X62298833Y-154512838D01*
X61955057Y-154654883D01*
X61691808Y-154917673D01*
X61549162Y-155261201D01*
X61548838Y-155633167D01*
X61690883Y-155976943D01*
X61953673Y-156240192D01*
X62256372Y-156365884D01*
X63689244Y-157798757D01*
X63952027Y-157974343D01*
X64262000Y-158036000D01*
X74257135Y-158036000D01*
X74249162Y-158055201D01*
X74248838Y-158427167D01*
X74390883Y-158770943D01*
X74653673Y-159034192D01*
X74997201Y-159176838D01*
X75227526Y-159177039D01*
X75881244Y-159830757D01*
X76038771Y-159936012D01*
X76144026Y-160006342D01*
X76454000Y-160068000D01*
X79014559Y-160068000D01*
X79315201Y-160192838D01*
X79687167Y-160193162D01*
X80030943Y-160051117D01*
X80294192Y-159788327D01*
X80436838Y-159444799D01*
X80437162Y-159072833D01*
X80295117Y-158729057D01*
X80032327Y-158465808D01*
X79770447Y-158357065D01*
X80853513Y-157274000D01*
X82639135Y-157274000D01*
X82631162Y-157293201D01*
X82630838Y-157665167D01*
X82663726Y-157744762D01*
X81723244Y-158685244D01*
X81547658Y-158948026D01*
X81486000Y-159258000D01*
X81486000Y-164592000D01*
X81547658Y-164901974D01*
X81723244Y-165164756D01*
X83488487Y-166930000D01*
X46658831Y-166930000D01*
X48034643Y-162068795D01*
X72024716Y-162068795D01*
X72273106Y-162669943D01*
X72732637Y-163130278D01*
X73333352Y-163379716D01*
X73983795Y-163380284D01*
X74584943Y-163131894D01*
X75045278Y-162672363D01*
X75294716Y-162071648D01*
X75295284Y-161421205D01*
X75046894Y-160820057D01*
X74587363Y-160359722D01*
X73986648Y-160110284D01*
X73336205Y-160109716D01*
X72735057Y-160358106D01*
X72274722Y-160817637D01*
X72025284Y-161418352D01*
X72024716Y-162068795D01*
X48034643Y-162068795D01*
X67827744Y-92133167D01*
X76280838Y-92133167D01*
X76422883Y-92476943D01*
X76685673Y-92740192D01*
X77029201Y-92882838D01*
X77401167Y-92883162D01*
X77704083Y-92758000D01*
X86380559Y-92758000D01*
X86681201Y-92882838D01*
X87053167Y-92883162D01*
X87356083Y-92758000D01*
X96286559Y-92758000D01*
X96587201Y-92882838D01*
X96959167Y-92883162D01*
X97302943Y-92741117D01*
X97566192Y-92478327D01*
X97708838Y-92134799D01*
X97709162Y-91762833D01*
X97567117Y-91419057D01*
X97304327Y-91155808D01*
X96960799Y-91013162D01*
X96588833Y-91012838D01*
X96285917Y-91138000D01*
X87355441Y-91138000D01*
X87054799Y-91013162D01*
X86682833Y-91012838D01*
X86379917Y-91138000D01*
X77703441Y-91138000D01*
X77402799Y-91013162D01*
X77030833Y-91012838D01*
X76687057Y-91154883D01*
X76423808Y-91417673D01*
X76281162Y-91761201D01*
X76280838Y-92133167D01*
X67827744Y-92133167D01*
X72212839Y-76639167D01*
X73867838Y-76639167D01*
X74009883Y-76982943D01*
X74272673Y-77246192D01*
X74575372Y-77371884D01*
X75645927Y-78442439D01*
X75645838Y-78544167D01*
X75787883Y-78887943D01*
X76050673Y-79151192D01*
X76394201Y-79293838D01*
X76766167Y-79294162D01*
X77109943Y-79152117D01*
X77373192Y-78889327D01*
X77515838Y-78545799D01*
X77516162Y-78173833D01*
X77374117Y-77830057D01*
X77111327Y-77566808D01*
X77025812Y-77531299D01*
X75720430Y-76225918D01*
X75596117Y-75925057D01*
X75333327Y-75661808D01*
X74989799Y-75519162D01*
X74617833Y-75518838D01*
X74274057Y-75660883D01*
X74010808Y-75923673D01*
X73868162Y-76267201D01*
X73867838Y-76639167D01*
X72212839Y-76639167D01*
X73147367Y-73337167D01*
X83138838Y-73337167D01*
X83280883Y-73680943D01*
X83543673Y-73944192D01*
X83887201Y-74086838D01*
X84259167Y-74087162D01*
X84602943Y-73945117D01*
X84866192Y-73682327D01*
X85008838Y-73338799D01*
X85009162Y-72966833D01*
X84884000Y-72663917D01*
X84884000Y-60710107D01*
X85120192Y-60474327D01*
X85262838Y-60130799D01*
X85263162Y-59758833D01*
X85121117Y-59415057D01*
X84858327Y-59151808D01*
X84514799Y-59009162D01*
X84142833Y-59008838D01*
X83799057Y-59150883D01*
X83535808Y-59413673D01*
X83393162Y-59757201D01*
X83393136Y-59787038D01*
X83325658Y-59888026D01*
X83264000Y-60198000D01*
X83264000Y-72664559D01*
X83139162Y-72965201D01*
X83138838Y-73337167D01*
X73147367Y-73337167D01*
X77388688Y-58351167D01*
X78693838Y-58351167D01*
X78835883Y-58694943D01*
X79098673Y-58958192D01*
X79442201Y-59100838D01*
X79814167Y-59101162D01*
X80117083Y-58976000D01*
X81788000Y-58976000D01*
X81798561Y-58973899D01*
X82100167Y-58974162D01*
X82443943Y-58832117D01*
X82707192Y-58569327D01*
X82849838Y-58225799D01*
X82850162Y-57853833D01*
X82708117Y-57510057D01*
X82445327Y-57246808D01*
X82101799Y-57104162D01*
X81729833Y-57103838D01*
X81386057Y-57245883D01*
X81275748Y-57356000D01*
X80116441Y-57356000D01*
X79815799Y-57231162D01*
X79443833Y-57230838D01*
X79100057Y-57372883D01*
X78836808Y-57635673D01*
X78694162Y-57979201D01*
X78693838Y-58351167D01*
X77388688Y-58351167D01*
X83820000Y-35627202D01*
X117386485Y-154228782D01*
M02*
