G04 #@! TF.FileFunction,Soldermask,Top*
%FSLAX46Y46*%
G04 Gerber Fmt 4.6, Leading zero omitted, Abs format (unit mm)*
G04 Created by KiCad (PCBNEW 4.0.2-stable) date 12/2/2016 8:18:44 PM*
%MOMM*%
G01*
G04 APERTURE LIST*
%ADD10C,0.100000*%
%ADD11R,2.000000X3.000000*%
%ADD12R,1.900000X1.650000*%
%ADD13R,1.598880X1.598880*%
%ADD14R,1.200100X1.200100*%
%ADD15R,1.900000X1.700000*%
%ADD16R,1.700000X1.900000*%
%ADD17R,1.543000X0.908000*%
%ADD18R,1.797000X0.831800*%
%ADD19R,1.500000X0.800000*%
%ADD20C,2.400000*%
G04 APERTURE END LIST*
D10*
D11*
X79800000Y-150200000D03*
X79800000Y-153800000D03*
D12*
X92750000Y-136250000D03*
X90250000Y-136250000D03*
D11*
X91000000Y-127300000D03*
X91000000Y-123700000D03*
D13*
X83820000Y-84370980D03*
X83820000Y-86469020D03*
X78740000Y-100230980D03*
X78740000Y-102329020D03*
X88900000Y-100230980D03*
X88900000Y-102329020D03*
X99060000Y-124110980D03*
X99060000Y-126209020D03*
X83820000Y-114750980D03*
X83820000Y-116849020D03*
X93980000Y-112210980D03*
X93980000Y-114309020D03*
X108780000Y-146230980D03*
X108780000Y-148329020D03*
X83820000Y-126670980D03*
X83820000Y-128769020D03*
X96560000Y-148830980D03*
X96560000Y-150929020D03*
X63500000Y-135950980D03*
X63500000Y-138049020D03*
X83820000Y-138490980D03*
X83820000Y-140589020D03*
X58940000Y-146350980D03*
X58940000Y-148449020D03*
X103920000Y-135770980D03*
X103920000Y-137869020D03*
X71120000Y-148810980D03*
X71120000Y-150909020D03*
X73620000Y-112210980D03*
X73620000Y-114309020D03*
X68720000Y-124070980D03*
X68720000Y-126169020D03*
D14*
X84775000Y-91500760D03*
X86675000Y-91500760D03*
X85725000Y-89501780D03*
X77790000Y-107360760D03*
X79690000Y-107360760D03*
X78740000Y-105361780D03*
X87950000Y-107360760D03*
X89850000Y-107360760D03*
X88900000Y-105361780D03*
X98110000Y-130605760D03*
X100010000Y-130605760D03*
X99060000Y-128606780D03*
X82870000Y-121245760D03*
X84770000Y-121245760D03*
X83820000Y-119246780D03*
X93030000Y-118705760D03*
X94930000Y-118705760D03*
X93980000Y-116706780D03*
X107830000Y-152725760D03*
X109730000Y-152725760D03*
X108780000Y-150726780D03*
X82870000Y-133165760D03*
X84770000Y-133165760D03*
X83820000Y-131166780D03*
X95610000Y-155325760D03*
X97510000Y-155325760D03*
X96560000Y-153326780D03*
X62550000Y-142445760D03*
X64450000Y-142445760D03*
X63500000Y-140446780D03*
X82870000Y-144985760D03*
X84770000Y-144985760D03*
X83820000Y-142986780D03*
X57990000Y-152845760D03*
X59890000Y-152845760D03*
X58940000Y-150846780D03*
X102970000Y-142265760D03*
X104870000Y-142265760D03*
X103920000Y-140266780D03*
X70170000Y-155305760D03*
X72070000Y-155305760D03*
X71120000Y-153306780D03*
X72670000Y-118705760D03*
X74570000Y-118705760D03*
X73620000Y-116706780D03*
X67770000Y-130565760D03*
X69670000Y-130565760D03*
X68720000Y-128566780D03*
D15*
X87710000Y-94310000D03*
X85010000Y-94310000D03*
D16*
X82000000Y-107050000D03*
X82000000Y-104350000D03*
X81915000Y-92485000D03*
X81915000Y-89785000D03*
X82000000Y-98350000D03*
X82000000Y-101050000D03*
X85000000Y-107050000D03*
X85000000Y-104350000D03*
X96600000Y-128050000D03*
X96600000Y-125350000D03*
X86000000Y-98350000D03*
X86000000Y-101050000D03*
X97000000Y-120350000D03*
X97000000Y-123050000D03*
X88000000Y-147650000D03*
X88000000Y-150350000D03*
X87000000Y-121250000D03*
X87000000Y-118550000D03*
X90800000Y-119850000D03*
X90800000Y-117150000D03*
X87000000Y-112550000D03*
X87000000Y-115250000D03*
X91000000Y-110550000D03*
X91000000Y-113250000D03*
X98060000Y-133475000D03*
X98060000Y-136175000D03*
X98060000Y-138555000D03*
X98060000Y-141255000D03*
X105800000Y-152450000D03*
X105800000Y-149750000D03*
X80600000Y-132450000D03*
X80600000Y-129750000D03*
X106500000Y-144550000D03*
X106500000Y-147250000D03*
X86400000Y-125150000D03*
X86400000Y-127850000D03*
X94100000Y-154950000D03*
X94100000Y-152250000D03*
X67000000Y-142350000D03*
X67000000Y-139650000D03*
X94100000Y-147050000D03*
X94100000Y-149750000D03*
X66500000Y-134150000D03*
X66500000Y-136850000D03*
X80500000Y-145350000D03*
X80500000Y-142650000D03*
X62000000Y-152950000D03*
X62000000Y-150250000D03*
X81000000Y-137150000D03*
X81000000Y-139850000D03*
X61600000Y-145450000D03*
X61600000Y-148150000D03*
X101000000Y-142350000D03*
X101000000Y-139650000D03*
X68000000Y-154850000D03*
X68000000Y-152150000D03*
X101750000Y-134650000D03*
X101750000Y-137350000D03*
X74000000Y-148150000D03*
X74000000Y-150850000D03*
X76600000Y-119450000D03*
X76600000Y-116750000D03*
X71700000Y-130250000D03*
X71700000Y-127550000D03*
X76200000Y-111650000D03*
X76200000Y-114350000D03*
X71400000Y-122350000D03*
X71400000Y-125050000D03*
D17*
X93175000Y-130595000D03*
X93175000Y-131865000D03*
X93175000Y-133135000D03*
X93175000Y-134405000D03*
X86825000Y-134405000D03*
X86825000Y-133135000D03*
X86825000Y-131865000D03*
X86825000Y-130595000D03*
D18*
X76794000Y-141930400D03*
X76794000Y-141295400D03*
X76794000Y-140635000D03*
X76794000Y-140000000D03*
X76794000Y-139339600D03*
X76794000Y-138691900D03*
X76794000Y-138044200D03*
X71206000Y-138044200D03*
X71206000Y-138691900D03*
X71206000Y-139339600D03*
X71206000Y-140000000D03*
X71206000Y-140647700D03*
X71206000Y-141295400D03*
X71206000Y-141943100D03*
X95294000Y-141930400D03*
X95294000Y-141295400D03*
X95294000Y-140635000D03*
X95294000Y-140000000D03*
X95294000Y-139339600D03*
X95294000Y-138691900D03*
X95294000Y-138044200D03*
X89706000Y-138044200D03*
X89706000Y-138691900D03*
X89706000Y-139339600D03*
X89706000Y-140000000D03*
X89706000Y-140647700D03*
X89706000Y-141295400D03*
X89706000Y-141943100D03*
D19*
X84550000Y-152925000D03*
X84550000Y-153575000D03*
X84550000Y-154225000D03*
X84550000Y-154875000D03*
X88850000Y-154875000D03*
X88850000Y-154225000D03*
X88850000Y-153575000D03*
X88850000Y-152925000D03*
D20*
X91500000Y-153500000D03*
X91500000Y-97800000D03*
X75500000Y-97500000D03*
X75500000Y-153200000D03*
M02*
