G04 #@! TF.FileFunction,Legend,Bot*
%FSLAX46Y46*%
G04 Gerber Fmt 4.6, Leading zero omitted, Abs format (unit mm)*
G04 Created by KiCad (PCBNEW 4.0.2-stable) date 12/1/2016 11:33:22 PM*
%MOMM*%
G01*
G04 APERTURE LIST*
%ADD10C,0.100000*%
%ADD11C,0.150000*%
G04 APERTURE END LIST*
D10*
D11*
X101980000Y-101925000D02*
X85980000Y-101925000D01*
X85980000Y-101925000D02*
X85980000Y-165925000D01*
X85980000Y-165925000D02*
X101980000Y-165925000D01*
X101980000Y-165925000D02*
X101980000Y-101925000D01*
X65660000Y-166045000D02*
X81660000Y-166045000D01*
X81660000Y-166045000D02*
X81660000Y-102045000D01*
X81660000Y-102045000D02*
X65660000Y-102045000D01*
X65660000Y-102045000D02*
X65660000Y-166045000D01*
X93908571Y-139549286D02*
X93956190Y-139692143D01*
X94003810Y-139739762D01*
X94099048Y-139787381D01*
X94241905Y-139787381D01*
X94337143Y-139739762D01*
X94384762Y-139692143D01*
X94432381Y-139596905D01*
X94432381Y-139215952D01*
X93432381Y-139215952D01*
X93432381Y-139549286D01*
X93480000Y-139644524D01*
X93527619Y-139692143D01*
X93622857Y-139739762D01*
X93718095Y-139739762D01*
X93813333Y-139692143D01*
X93860952Y-139644524D01*
X93908571Y-139549286D01*
X93908571Y-139215952D01*
X93432381Y-140073095D02*
X93432381Y-140644524D01*
X94432381Y-140358809D02*
X93432381Y-140358809D01*
X94432381Y-141501667D02*
X94432381Y-140930238D01*
X94432381Y-141215952D02*
X93432381Y-141215952D01*
X93575238Y-141120714D01*
X93670476Y-141025476D01*
X93718095Y-140930238D01*
X95884762Y-110282143D02*
X92075238Y-110282143D01*
X95884762Y-158282143D02*
X92075238Y-158282143D01*
X93980000Y-160186905D02*
X93980000Y-156377381D01*
X73588571Y-126849286D02*
X73636190Y-126992143D01*
X73683810Y-127039762D01*
X73779048Y-127087381D01*
X73921905Y-127087381D01*
X74017143Y-127039762D01*
X74064762Y-126992143D01*
X74112381Y-126896905D01*
X74112381Y-126515952D01*
X73112381Y-126515952D01*
X73112381Y-126849286D01*
X73160000Y-126944524D01*
X73207619Y-126992143D01*
X73302857Y-127039762D01*
X73398095Y-127039762D01*
X73493333Y-126992143D01*
X73540952Y-126944524D01*
X73588571Y-126849286D01*
X73588571Y-126515952D01*
X73112381Y-127373095D02*
X73112381Y-127944524D01*
X74112381Y-127658809D02*
X73112381Y-127658809D01*
X73207619Y-128230238D02*
X73160000Y-128277857D01*
X73112381Y-128373095D01*
X73112381Y-128611191D01*
X73160000Y-128706429D01*
X73207619Y-128754048D01*
X73302857Y-128801667D01*
X73398095Y-128801667D01*
X73540952Y-128754048D01*
X74112381Y-128182619D01*
X74112381Y-128801667D01*
X75564762Y-158402143D02*
X71755238Y-158402143D01*
X75564762Y-110402143D02*
X71755238Y-110402143D01*
X73660000Y-112306905D02*
X73660000Y-108497381D01*
M02*
